<?xml version="1.0" encoding="utf-8"?>
<svg xmlns="http://www.w3.org/2000/svg" viewBox="74.981 40 362.0381 362.038" width="362.038px" height="362.038px">
  <defs>
    <linearGradient id="gradient-0-1" href="#gradient-0" gradientUnits="userSpaceOnUse" x1="256" y1="40" x2="256" y2="402.038" gradientTransform="matrix(0.7734, 0, 0, 0.7734, 58.009037, 50.083671)"/>
    <linearGradient id="gradient-0">
      <stop offset="0" style="stop-color: rgb(215, 202, 175);"/>
      <stop offset="0.47" style="stop-color: rgb(207, 192, 159);"/>
      <stop offset="0.891" style="stop-color: rgb(165, 151, 122);"/>
    </linearGradient>
  </defs>
  <rect x="74.981" y="40" width="362.038" height="362.038" style="" rx="20" ry="20"/>
  <path d="M 116 221.019 L 123.367 228.387 L 138.105 213.65 L 248.632 324.176 L 241.263 331.546 L 226.526 316.808 L 219.158 324.176 L 241.263 346.282 L 263.368 324.176 L 145.472 206.282 L 152.841 198.913 L 270.737 316.808 L 278.105 309.44 L 160.21 191.545 L 167.578 184.176 L 211.789 228.388 L 307.579 132.597 L 256 81.018 L 116 221.019 Z M 211.789 213.65 L 174.947 176.807 L 256 95.754 L 292.843 132.596 L 285.473 139.967 L 263.368 117.861 L 256 125.23 L 278.105 147.335 L 270.737 154.702 L 248.632 132.596 L 241.263 139.967 L 263.368 162.072 L 256 169.44 L 233.894 147.335 L 226.526 154.703 L 248.631 176.808 L 241.263 184.177 L 219.158 162.072 L 211.789 169.44 L 233.894 191.545 L 211.789 213.65 Z M 248.632 353.652 L 256 361.019 L 329.684 287.335 L 322.316 279.967 L 300.211 302.072 L 292.842 294.703 L 322.315 265.23 L 278.104 221.019 L 285.473 213.65 L 329.684 257.861 L 381.263 206.282 L 359.158 184.176 L 337.052 206.282 L 351.789 221.019 L 344.421 228.387 L 337.054 221.019 L 329.684 228.388 L 337.052 235.756 L 329.684 243.125 L 285.474 198.913 L 263.369 221.019 L 307.579 265.23 L 300.21 272.598 L 256 228.388 L 233.894 250.493 L 292.843 309.441 L 248.632 353.652 Z M 292.842 279.967 L 285.474 287.335 L 248.631 250.492 L 255.999 243.125 L 292.842 279.967 Z M 359.158 213.651 L 351.789 206.282 L 359.159 198.913 L 366.527 206.282 L 359.158 213.651 Z M 211.789 169.44 L 204.421 162.072 L 189.684 176.809 L 197.052 184.177 L 211.789 169.44 Z M 337.053 265.231 L 329.684 272.598 L 337.052 279.967 L 344.421 272.598 L 337.053 265.231 Z M 366.527 250.492 L 359.159 243.125 L 344.421 257.861 L 351.789 265.23 L 366.527 250.492 Z M 322.315 147.335 L 314.947 139.966 L 307.579 147.334 L 314.948 154.702 L 322.315 147.335 Z M 307.579 162.072 L 300.209 154.703 L 285.474 169.439 L 292.843 176.807 L 307.579 162.072 Z M 329.684 184.177 L 322.315 176.808 L 314.947 184.176 L 322.315 191.545 L 329.684 184.177 Z M 329.684 184.177 L 337.052 191.546 L 344.421 184.176 L 337.053 176.807 L 329.684 184.177 Z M 329.684 198.913 L 322.315 191.545 L 314.948 198.913 L 322.316 206.282 L 329.684 198.913 Z M 396 221.019 L 388.633 213.651 L 366.527 235.756 L 373.894 243.125 L 396 221.019 Z" fill-rule="evenodd" style="stroke-width: 1; fill: url(&quot;#gradient-0-1&quot;); stroke: rgb(95, 85, 52); transform-origin: 256px 221.019px;"/>
</svg>